STARTFONT 2.1
COMMENT  (c) Copyright Bigelow & Holmes 1986, 1985. Lucida is a registered
COMMENT  trademark of Bigelow & Holmes. See LEGAL NOTICE file for terms 
COMMENT  of the license. 
COMMENT GRID 0012 0012 0200 0200
FONT -B&H-LucidaTypewriter-Bold-R-Normal-Sans-12-120-75-75-M-70-ISO8859-1
SIZE 12 72 72
FONTBOUNDINGBOX 7 13 0 -2
STARTPROPERTIES 19
COMMENT Begin LogicalFontDescription
FONTNAME_REGISTRY ""
FOUNDRY "B&H"
FAMILY_NAME "LucidaTypewriter"
WEIGHT_NAME "Bold"
SLANT "R"
SETWIDTH_NAME "Normal"
ADD_STYLE_NAME "Sans"
PIXEL_SIZE 12
POINT_SIZE 120
RESOLUTION_X 75
RESOLUTION_Y 75
SPACING "M"
AVERAGE_WIDTH 70
CHARSET_REGISTRY "ISO8859"
CHARSET_ENCODING "1"
COMMENT END LogicalFontDescription
FONT_ASCENT 11
FONT_DESCENT 2
DEFAULT_CHAR 32
COPYRIGHT "Copyright Bigelow & Holmes 1986, 1985."
ENDPROPERTIES
CHARS 228
STARTCHAR space
ENCODING 32
SWIDTH 42 0
DWIDTH 7 0
BBX 1 1 0 0
BITMAP
00
ENDCHAR
STARTCHAR exclam
ENCODING 33
SWIDTH 42 0
DWIDTH 7 0
BBX 2 9 3 0
BITMAP
C0
C0
C0
C0
C0
40
00
C0
C0
ENDCHAR
STARTCHAR quotedbl
ENCODING 34
SWIDTH 42 0
DWIDTH 7 0
BBX 5 4 2 6
BITMAP
D8
D8
90
90
ENDCHAR
STARTCHAR numbersign
ENCODING 35
SWIDTH 42 0
DWIDTH 7 0
BBX 7 9 0 0
BITMAP
6C
6C
FE
6C
6C
FE
6C
6C
6C
ENDCHAR
STARTCHAR dollar
ENCODING 36
SWIDTH 42 0
DWIDTH 7 0
BBX 6 13 1 -2
BITMAP
10
10
78
C4
C0
E0
78
1C
0C
8C
78
20
20
ENDCHAR
STARTCHAR percent
ENCODING 37
SWIDTH 42 0
DWIDTH 7 0
BBX 7 9 0 0
BITMAP
62
B6
B4
68
10
2C
56
D6
8C
ENDCHAR
STARTCHAR ampersand
ENCODING 38
SWIDTH 42 0
DWIDTH 7 0
BBX 6 9 1 0
BITMAP
70
D8
D8
D0
64
F4
D8
CC
74
ENDCHAR
STARTCHAR quoteright
ENCODING 39
SWIDTH 42 0
DWIDTH 7 0
BBX 2 4 3 6
BITMAP
C0
C0
40
80
ENDCHAR
STARTCHAR parenleft
ENCODING 40
SWIDTH 42 0
DWIDTH 7 0
BBX 4 11 2 -1
BITMAP
30
60
C0
C0
C0
C0
C0
C0
C0
60
30
ENDCHAR
STARTCHAR parenright
ENCODING 41
SWIDTH 42 0
DWIDTH 7 0
BBX 4 11 1 -1
BITMAP
C0
60
30
30
30
30
30
30
30
60
C0
ENDCHAR
STARTCHAR asterisk
ENCODING 42
SWIDTH 42 0
DWIDTH 7 0
BBX 5 5 1 4
BITMAP
20
A8
70
A8
20
ENDCHAR
STARTCHAR plus
ENCODING 43
SWIDTH 42 0
DWIDTH 7 0
BBX 7 7 0 1
BITMAP
10
10
10
FE
10
10
10
ENDCHAR
STARTCHAR comma
ENCODING 44
SWIDTH 42 0
DWIDTH 7 0
BBX 2 4 3 -2
BITMAP
C0
C0
40
80
ENDCHAR
STARTCHAR minus
ENCODING 45
SWIDTH 42 0
DWIDTH 7 0
BBX 6 1 1 4
BITMAP
FC
ENDCHAR
STARTCHAR period
ENCODING 46
SWIDTH 42 0
DWIDTH 7 0
BBX 2 2 3 0
BITMAP
C0
C0
ENDCHAR
STARTCHAR slash
ENCODING 47
SWIDTH 42 0
DWIDTH 7 0
BBX 7 11 0 -1
BITMAP
06
06
0C
0C
18
18
30
60
60
C0
C0
ENDCHAR
STARTCHAR zero
ENCODING 48
SWIDTH 42 0
DWIDTH 7 0
BBX 6 9 1 0
BITMAP
78
CC
CC
CC
CC
CC
CC
CC
78
ENDCHAR
STARTCHAR one
ENCODING 49
SWIDTH 42 0
DWIDTH 7 0
BBX 4 9 1 0
BITMAP
30
F0
30
30
30
30
30
30
30
ENDCHAR
STARTCHAR two
ENCODING 50
SWIDTH 42 0
DWIDTH 7 0
BBX 6 9 1 0
BITMAP
78
CC
0C
1C
38
60
C0
FC
FC
ENDCHAR
STARTCHAR three
ENCODING 51
SWIDTH 42 0
DWIDTH 7 0
BBX 6 9 1 0
BITMAP
78
CC
0C
0C
78
0C
0C
CC
78
ENDCHAR
STARTCHAR four
ENCODING 52
SWIDTH 42 0
DWIDTH 7 0
BBX 6 9 1 0
BITMAP
18
38
58
58
98
FC
FC
18
18
ENDCHAR
STARTCHAR five
ENCODING 53
SWIDTH 42 0
DWIDTH 7 0
BBX 6 9 1 0
BITMAP
7C
7C
40
40
78
0C
0C
CC
78
ENDCHAR
STARTCHAR six
ENCODING 54
SWIDTH 42 0
DWIDTH 7 0
BBX 6 9 1 0
BITMAP
78
CC
C0
C0
F8
CC
CC
CC
78
ENDCHAR
STARTCHAR seven
ENCODING 55
SWIDTH 42 0
DWIDTH 7 0
BBX 6 9 1 0
BITMAP
FC
FC
0C
18
30
30
60
60
60
ENDCHAR
STARTCHAR eight
ENCODING 56
SWIDTH 42 0
DWIDTH 7 0
BBX 6 9 1 0
BITMAP
78
CC
CC
EC
78
DC
CC
CC
78
ENDCHAR
STARTCHAR nine
ENCODING 57
SWIDTH 42 0
DWIDTH 7 0
BBX 6 9 1 0
BITMAP
78
CC
CC
CC
7C
0C
0C
CC
78
ENDCHAR
STARTCHAR colon
ENCODING 58
SWIDTH 42 0
DWIDTH 7 0
BBX 2 7 3 0
BITMAP
C0
C0
00
00
00
C0
C0
ENDCHAR
STARTCHAR semicolon
ENCODING 59
SWIDTH 42 0
DWIDTH 7 0
BBX 2 9 3 -2
BITMAP
C0
C0
00
00
00
C0
C0
40
80
ENDCHAR
STARTCHAR less
ENCODING 60
SWIDTH 42 0
DWIDTH 7 0
BBX 6 7 0 1
BITMAP
0C
38
60
C0
60
38
0C
ENDCHAR
STARTCHAR equal
ENCODING 61
SWIDTH 42 0
DWIDTH 7 0
BBX 6 3 1 3
BITMAP
FC
00
FC
ENDCHAR
STARTCHAR greater
ENCODING 62
SWIDTH 42 0
DWIDTH 7 0
BBX 6 7 1 1
BITMAP
C0
70
18
0C
18
70
C0
ENDCHAR
STARTCHAR question
ENCODING 63
SWIDTH 42 0
DWIDTH 7 0
BBX 5 9 2 0
BITMAP
70
98
18
30
60
60
00
60
60
ENDCHAR
STARTCHAR at
ENCODING 64
SWIDTH 42 0
DWIDTH 7 0
BBX 7 9 0 0
BITMAP
7C
C6
9E
B6
B6
B6
9A
C0
7C
ENDCHAR
STARTCHAR A
ENCODING 65
SWIDTH 42 0
DWIDTH 7 0
BBX 6 9 1 0
BITMAP
30
30
58
58
58
FC
8C
8C
8C
ENDCHAR
STARTCHAR B
ENCODING 66
SWIDTH 42 0
DWIDTH 7 0
BBX 6 9 1 0
BITMAP
F8
CC
CC
C8
F0
C8
CC
CC
F8
ENDCHAR
STARTCHAR C
ENCODING 67
SWIDTH 42 0
DWIDTH 7 0
BBX 6 9 1 0
BITMAP
38
6C
C0
C0
C0
C0
C0
64
38
ENDCHAR
STARTCHAR D
ENCODING 68
SWIDTH 42 0
DWIDTH 7 0
BBX 6 9 1 0
BITMAP
F0
D8
CC
CC
CC
CC
CC
D8
F0
ENDCHAR
STARTCHAR E
ENCODING 69
SWIDTH 42 0
DWIDTH 7 0
BBX 5 9 2 0
BITMAP
F8
C0
C0
C0
F0
C0
C0
C0
F8
ENDCHAR
STARTCHAR F
ENCODING 70
SWIDTH 42 0
DWIDTH 7 0
BBX 5 9 2 0
BITMAP
F8
C0
C0
C0
F0
C0
C0
C0
C0
ENDCHAR
STARTCHAR G
ENCODING 71
SWIDTH 42 0
DWIDTH 7 0
BBX 6 9 1 0
BITMAP
38
6C
C0
C0
C0
CC
CC
6C
3C
ENDCHAR
STARTCHAR H
ENCODING 72
SWIDTH 42 0
DWIDTH 7 0
BBX 6 9 1 0
BITMAP
CC
CC
CC
CC
FC
CC
CC
CC
CC
ENDCHAR
STARTCHAR I
ENCODING 73
SWIDTH 42 0
DWIDTH 7 0
BBX 6 9 1 0
BITMAP
FC
30
30
30
30
30
30
30
FC
ENDCHAR
STARTCHAR J
ENCODING 74
SWIDTH 42 0
DWIDTH 7 0
BBX 5 9 1 0
BITMAP
F8
18
18
18
18
18
18
18
F0
ENDCHAR
STARTCHAR K
ENCODING 75
SWIDTH 42 0
DWIDTH 7 0
BBX 6 9 1 0
BITMAP
C4
CC
C8
D0
E0
F0
D8
CC
CC
ENDCHAR
STARTCHAR L
ENCODING 76
SWIDTH 42 0
DWIDTH 7 0
BBX 5 9 2 0
BITMAP
C0
C0
C0
C0
C0
C0
C0
C0
F8
ENDCHAR
STARTCHAR M
ENCODING 77
SWIDTH 42 0
DWIDTH 7 0
BBX 6 9 1 0
BITMAP
CC
CC
FC
FC
AC
AC
AC
AC
8C
ENDCHAR
STARTCHAR N
ENCODING 78
SWIDTH 42 0
DWIDTH 7 0
BBX 6 9 1 0
BITMAP
C4
C4
E4
F4
B4
BC
9C
8C
8C
ENDCHAR
STARTCHAR O
ENCODING 79
SWIDTH 42 0
DWIDTH 7 0
BBX 6 9 1 0
BITMAP
78
48
CC
CC
CC
CC
CC
48
78
ENDCHAR
STARTCHAR P
ENCODING 80
SWIDTH 42 0
DWIDTH 7 0
BBX 6 9 1 0
BITMAP
F8
CC
CC
CC
C8
F0
C0
C0
C0
ENDCHAR
STARTCHAR Q
ENCODING 81
SWIDTH 42 0
DWIDTH 7 0
BBX 6 11 1 -2
BITMAP
78
48
CC
CC
CC
CC
CC
48
78
18
0C
ENDCHAR
STARTCHAR R
ENCODING 82
SWIDTH 42 0
DWIDTH 7 0
BBX 6 9 1 0
BITMAP
F8
CC
CC
C8
F0
D8
D8
CC
CC
ENDCHAR
STARTCHAR S
ENCODING 83
SWIDTH 42 0
DWIDTH 7 0
BBX 6 9 1 0
BITMAP
78
CC
C0
E0
78
1C
0C
CC
78
ENDCHAR
STARTCHAR T
ENCODING 84
SWIDTH 42 0
DWIDTH 7 0
BBX 6 9 1 0
BITMAP
FC
30
30
30
30
30
30
30
30
ENDCHAR
STARTCHAR U
ENCODING 85
SWIDTH 42 0
DWIDTH 7 0
BBX 6 9 1 0
BITMAP
C4
C4
C4
C4
C4
C4
C4
68
30
ENDCHAR
STARTCHAR V
ENCODING 86
SWIDTH 42 0
DWIDTH 7 0
BBX 6 9 1 0
BITMAP
CC
CC
CC
C8
68
68
70
30
30
ENDCHAR
STARTCHAR W
ENCODING 87
SWIDTH 42 0
DWIDTH 7 0
BBX 6 9 1 0
BITMAP
C4
C4
D4
D4
D4
7C
68
68
68
ENDCHAR
STARTCHAR X
ENCODING 88
SWIDTH 42 0
DWIDTH 7 0
BBX 6 9 1 0
BITMAP
CC
CC
68
70
30
38
58
CC
CC
ENDCHAR
STARTCHAR Y
ENCODING 89
SWIDTH 42 0
DWIDTH 7 0
BBX 6 9 1 0
BITMAP
CC
CC
CC
48
78
30
30
30
30
ENDCHAR
STARTCHAR Z
ENCODING 90
SWIDTH 42 0
DWIDTH 7 0
BBX 6 9 1 0
BITMAP
FC
0C
1C
38
30
70
E0
C0
FC
ENDCHAR
STARTCHAR bracketleft
ENCODING 91
SWIDTH 42 0
DWIDTH 7 0
BBX 4 11 2 -1
BITMAP
F0
C0
C0
C0
C0
C0
C0
C0
C0
C0
F0
ENDCHAR
STARTCHAR backslash
ENCODING 92
SWIDTH 42 0
DWIDTH 7 0
BBX 7 11 0 -1
BITMAP
C0
C0
60
60
30
30
18
0C
0C
06
06
ENDCHAR
STARTCHAR bracketright
ENCODING 93
SWIDTH 42 0
DWIDTH 7 0
BBX 4 11 2 -1
BITMAP
F0
30
30
30
30
30
30
30
30
30
F0
ENDCHAR
STARTCHAR asciicircum
ENCODING 94
SWIDTH 42 0
DWIDTH 7 0
BBX 7 7 0 2
BITMAP
10
38
28
6C
44
C6
82
ENDCHAR
STARTCHAR underscore
ENCODING 95
SWIDTH 42 0
DWIDTH 7 0
BBX 7 1 0 -1
BITMAP
FE
ENDCHAR
STARTCHAR quoteleft
ENCODING 96
SWIDTH 42 0
DWIDTH 7 0
BBX 2 4 3 6
BITMAP
40
80
C0
C0
ENDCHAR
STARTCHAR a
ENCODING 97
SWIDTH 42 0
DWIDTH 7 0
BBX 6 7 1 0
BITMAP
78
CC
0C
7C
CC
CC
74
ENDCHAR
STARTCHAR b
ENCODING 98
SWIDTH 42 0
DWIDTH 7 0
BBX 6 10 1 0
BITMAP
C0
C0
C0
D8
EC
CC
CC
CC
CC
F8
ENDCHAR
STARTCHAR c
ENCODING 99
SWIDTH 42 0
DWIDTH 7 0
BBX 6 7 1 0
BITMAP
78
CC
C0
C0
C0
C4
78
ENDCHAR
STARTCHAR d
ENCODING 100
SWIDTH 42 0
DWIDTH 7 0
BBX 6 10 1 0
BITMAP
0C
0C
0C
7C
CC
CC
CC
CC
DC
6C
ENDCHAR
STARTCHAR e
ENCODING 101
SWIDTH 42 0
DWIDTH 7 0
BBX 6 7 1 0
BITMAP
78
CC
CC
FC
C0
C4
78
ENDCHAR
STARTCHAR f
ENCODING 102
SWIDTH 42 0
DWIDTH 7 0
BBX 6 10 1 0
BITMAP
3C
60
60
FC
60
60
60
60
60
60
ENDCHAR
STARTCHAR g
ENCODING 103
SWIDTH 42 0
DWIDTH 7 0
BBX 6 9 1 -2
BITMAP
7C
CC
CC
CC
DC
6C
0C
CC
78
ENDCHAR
STARTCHAR h
ENCODING 104
SWIDTH 42 0
DWIDTH 7 0
BBX 6 10 1 0
BITMAP
C0
C0
C0
D8
EC
CC
CC
CC
CC
CC
ENDCHAR
STARTCHAR i
ENCODING 105
SWIDTH 42 0
DWIDTH 7 0
BBX 4 10 1 0
BITMAP
30
30
00
F0
30
30
30
30
30
30
ENDCHAR
STARTCHAR j
ENCODING 106
SWIDTH 42 0
DWIDTH 7 0
BBX 4 12 1 -2
BITMAP
30
30
00
F0
30
30
30
30
30
30
30
E0
ENDCHAR
STARTCHAR k
ENCODING 107
SWIDTH 42 0
DWIDTH 7 0
BBX 6 10 1 0
BITMAP
C0
C0
C0
CC
C8
D0
F0
D8
CC
CC
ENDCHAR
STARTCHAR l
ENCODING 108
SWIDTH 42 0
DWIDTH 7 0
BBX 4 10 1 0
BITMAP
F0
30
30
30
30
30
30
30
30
30
ENDCHAR
STARTCHAR m
ENCODING 109
SWIDTH 42 0
DWIDTH 7 0
BBX 6 7 1 0
BITMAP
F8
D4
D4
D4
D4
D4
D4
ENDCHAR
STARTCHAR n
ENCODING 110
SWIDTH 42 0
DWIDTH 7 0
BBX 6 7 1 0
BITMAP
D8
EC
CC
CC
CC
CC
CC
ENDCHAR
STARTCHAR o
ENCODING 111
SWIDTH 42 0
DWIDTH 7 0
BBX 6 7 1 0
BITMAP
78
CC
CC
CC
CC
CC
78
ENDCHAR
STARTCHAR p
ENCODING 112
SWIDTH 42 0
DWIDTH 7 0
BBX 6 9 1 -2
BITMAP
D8
EC
CC
CC
CC
CC
F8
C0
C0
ENDCHAR
STARTCHAR q
ENCODING 113
SWIDTH 42 0
DWIDTH 7 0
BBX 6 9 1 -2
BITMAP
7C
CC
CC
CC
CC
DC
6C
0C
0C
ENDCHAR
STARTCHAR r
ENCODING 114
SWIDTH 42 0
DWIDTH 7 0
BBX 5 7 2 0
BITMAP
D8
D8
E0
C0
C0
C0
C0
ENDCHAR
STARTCHAR s
ENCODING 115
SWIDTH 42 0
DWIDTH 7 0
BBX 6 7 1 0
BITMAP
7C
C0
E0
78
1C
0C
F8
ENDCHAR
STARTCHAR t
ENCODING 116
SWIDTH 42 0
DWIDTH 7 0
BBX 6 9 1 0
BITMAP
20
60
FC
60
60
60
60
60
3C
ENDCHAR
STARTCHAR u
ENCODING 117
SWIDTH 42 0
DWIDTH 7 0
BBX 6 7 1 0
BITMAP
CC
CC
CC
CC
CC
DC
6C
ENDCHAR
STARTCHAR v
ENCODING 118
SWIDTH 42 0
DWIDTH 7 0
BBX 6 7 1 0
BITMAP
CC
CC
CC
68
68
30
30
ENDCHAR
STARTCHAR w
ENCODING 119
SWIDTH 42 0
DWIDTH 7 0
BBX 6 7 1 0
BITMAP
C4
D4
D4
D4
68
68
68
ENDCHAR
STARTCHAR x
ENCODING 120
SWIDTH 42 0
DWIDTH 7 0
BBX 6 7 1 0
BITMAP
CC
CC
68
30
58
CC
CC
ENDCHAR
STARTCHAR y
ENCODING 121
SWIDTH 42 0
DWIDTH 7 0
BBX 6 9 1 -2
BITMAP
CC
CC
CC
68
68
30
30
20
60
ENDCHAR
STARTCHAR z
ENCODING 122
SWIDTH 42 0
DWIDTH 7 0
BBX 6 7 1 0
BITMAP
FC
1C
38
70
E0
C0
FC
ENDCHAR
STARTCHAR braceleft
ENCODING 123
SWIDTH 42 0
DWIDTH 7 0
BBX 4 11 2 -1
BITMAP
70
C0
C0
60
20
C0
20
60
C0
C0
70
ENDCHAR
STARTCHAR bar
ENCODING 124
SWIDTH 42 0
DWIDTH 7 0
BBX 2 11 3 -1
BITMAP
C0
C0
C0
C0
C0
C0
C0
C0
C0
C0
C0
ENDCHAR
STARTCHAR braceright
ENCODING 125
SWIDTH 42 0
DWIDTH 7 0
BBX 4 11 2 -1
BITMAP
E0
30
30
60
40
30
40
60
30
30
E0
ENDCHAR
STARTCHAR asciitilde
ENCODING 126
SWIDTH 42 0
DWIDTH 7 0
BBX 6 3 1 3
BITMAP
64
B4
98
ENDCHAR
STARTCHAR exclamdown
ENCODING 161
SWIDTH 42 0
DWIDTH 7 0
BBX 2 9 3 -2
BITMAP
C0
C0
00
80
C0
C0
C0
C0
C0
ENDCHAR
STARTCHAR cent
ENCODING 162
SWIDTH 42 0
DWIDTH 7 0
BBX 6 11 1 -1
BITMAP
10
10
78
CC
C0
C0
C0
CC
78
10
10
ENDCHAR
STARTCHAR sterling
ENCODING 163
SWIDTH 42 0
DWIDTH 7 0
BBX 7 9 0 0
BITMAP
3C
62
60
60
F8
60
60
60
FE
ENDCHAR
STARTCHAR currency
ENCODING 164
SWIDTH 42 0
DWIDTH 7 0
BBX 7 9 0 0
BITMAP
82
C6
7C
4C
4C
4C
7C
C6
82
ENDCHAR
STARTCHAR yen
ENCODING 165
SWIDTH 42 0
DWIDTH 7 0
BBX 6 9 1 0
BITMAP
C4
C4
CC
68
FC
30
FC
30
30
ENDCHAR
STARTCHAR brokenbar
ENCODING 166
SWIDTH 42 0
DWIDTH 7 0
BBX 2 11 3 -1
BITMAP
C0
C0
C0
C0
00
00
00
C0
C0
C0
C0
ENDCHAR
STARTCHAR section
ENCODING 167
SWIDTH 42 0
DWIDTH 7 0
BBX 6 10 1 -1
BITMAP
78
CC
E0
78
8C
C4
78
1C
CC
78
ENDCHAR
STARTCHAR dieresis
ENCODING 168
SWIDTH 42 0
DWIDTH 7 0
BBX 4 2 2 8
BITMAP
90
90
ENDCHAR
STARTCHAR copyright
ENCODING 169
SWIDTH 42 0
DWIDTH 7 0
BBX 7 9 0 0
BITMAP
38
44
9A
A2
A2
A2
9A
44
38
ENDCHAR
STARTCHAR ordfeminine
ENCODING 170
SWIDTH 42 0
DWIDTH 7 0
BBX 6 6 1 3
BITMAP
70
18
78
D8
D8
6C
ENDCHAR
STARTCHAR guillemotleft
ENCODING 171
SWIDTH 42 0
DWIDTH 7 0
BBX 7 5 0 1
BITMAP
36
6C
D8
6C
36
ENDCHAR
STARTCHAR logicalnot
ENCODING 172
SWIDTH 42 0
DWIDTH 7 0
BBX 6 4 1 1
BITMAP
FC
04
04
04
ENDCHAR
STARTCHAR hyphen
ENCODING 173
SWIDTH 42 0
DWIDTH 7 0
BBX 3 1 2 4
BITMAP
E0
ENDCHAR
STARTCHAR registered
ENCODING 174
SWIDTH 42 0
DWIDTH 7 0
BBX 7 7 0 2
BITMAP
38
44
BA
B2
AA
44
38
ENDCHAR
STARTCHAR macron
ENCODING 175
SWIDTH 42 0
DWIDTH 7 0
BBX 4 1 2 8
BITMAP
F0
ENDCHAR
STARTCHAR degree
ENCODING 176
SWIDTH 42 0
DWIDTH 7 0
BBX 4 4 2 5
BITMAP
60
D0
D0
60
ENDCHAR
STARTCHAR plusminus
ENCODING 177
SWIDTH 42 0
DWIDTH 7 0
BBX 7 7 0 1
BITMAP
10
10
FE
10
10
00
FE
ENDCHAR
STARTCHAR twosuperior
ENCODING 178
SWIDTH 42 0
DWIDTH 7 0
BBX 5 6 1 3
BITMAP
F0
18
18
70
C0
F8
ENDCHAR
STARTCHAR threesuperior
ENCODING 179
SWIDTH 42 0
DWIDTH 7 0
BBX 5 6 1 3
BITMAP
F0
18
70
18
18
F0
ENDCHAR
STARTCHAR acute
ENCODING 180
SWIDTH 42 0
DWIDTH 7 0
BBX 3 2 3 8
BITMAP
60
C0
ENDCHAR
STARTCHAR mu
ENCODING 181
SWIDTH 42 0
DWIDTH 7 0
BBX 6 9 1 -2
BITMAP
CC
CC
CC
CC
CC
DC
EC
C0
C0
ENDCHAR
STARTCHAR paragraph
ENCODING 182
SWIDTH 42 0
DWIDTH 7 0
BBX 6 10 0 -1
BITMAP
7C
F4
F4
F4
74
14
14
14
14
14
ENDCHAR
STARTCHAR periodcentered
ENCODING 183
SWIDTH 42 0
DWIDTH 7 0
BBX 2 2 3 3
BITMAP
C0
C0
ENDCHAR
STARTCHAR cedilla
ENCODING 184
SWIDTH 42 0
DWIDTH 7 0
BBX 3 2 2 -2
BITMAP
20
C0
ENDCHAR
STARTCHAR onesuperior
ENCODING 185
SWIDTH 42 0
DWIDTH 7 0
BBX 3 6 1 3
BITMAP
E0
60
60
60
60
60
ENDCHAR
STARTCHAR ordmasculine
ENCODING 186
SWIDTH 42 0
DWIDTH 7 0
BBX 5 6 1 3
BITMAP
70
D8
D8
D8
D8
70
ENDCHAR
STARTCHAR guillemotright
ENCODING 187
SWIDTH 42 0
DWIDTH 7 0
BBX 7 5 0 1
BITMAP
D8
6C
36
6C
D8
ENDCHAR
STARTCHAR onequarter
ENCODING 188
SWIDTH 42 0
DWIDTH 7 0
BBX 7 10 0 0
BITMAP
E0
60
62
6C
10
6C
9C
2C
3E
0C
ENDCHAR
STARTCHAR onehalf
ENCODING 189
SWIDTH 42 0
DWIDTH 7 0
BBX 7 10 0 0
BITMAP
E0
60
62
6C
10
6C
96
06
0C
1E
ENDCHAR
STARTCHAR threequarters
ENCODING 190
SWIDTH 42 0
DWIDTH 7 0
BBX 7 10 0 0
BITMAP
E0
60
C4
68
F0
2C
5C
AC
3E
0C
ENDCHAR
STARTCHAR questiondown
ENCODING 191
SWIDTH 42 0
DWIDTH 7 0
BBX 5 9 1 -2
BITMAP
30
30
00
30
30
60
C0
C8
70
ENDCHAR
STARTCHAR Agrave
ENCODING 192
SWIDTH 42 0
DWIDTH 7 0
BBX 6 11 1 0
BITMAP
60
30
00
30
58
58
58
FC
8C
8C
8C
ENDCHAR
STARTCHAR Aacute
ENCODING 193
SWIDTH 42 0
DWIDTH 7 0
BBX 6 11 1 0
BITMAP
18
30
00
30
58
58
58
FC
8C
8C
8C
ENDCHAR
STARTCHAR Acircumflex
ENCODING 194
SWIDTH 42 0
DWIDTH 7 0
BBX 6 11 1 0
BITMAP
30
58
00
30
58
58
58
FC
8C
8C
8C
ENDCHAR
STARTCHAR Atilde
ENCODING 195
SWIDTH 42 0
DWIDTH 7 0
BBX 6 11 1 0
BITMAP
68
B0
00
30
58
58
58
FC
8C
8C
8C
ENDCHAR
STARTCHAR Adieresis
ENCODING 196
SWIDTH 42 0
DWIDTH 7 0
BBX 6 11 1 0
BITMAP
48
48
00
30
58
58
58
FC
8C
8C
8C
ENDCHAR
STARTCHAR Aring
ENCODING 197
SWIDTH 42 0
DWIDTH 7 0
BBX 6 11 1 0
BITMAP
30
58
30
30
58
58
58
FC
8C
8C
8C
ENDCHAR
STARTCHAR AE
ENCODING 198
SWIDTH 42 0
DWIDTH 7 0
BBX 7 9 0 0
BITMAP
3E
38
58
58
5E
98
F8
98
9E
ENDCHAR
STARTCHAR Ccedilla
ENCODING 199
SWIDTH 42 0
DWIDTH 7 0
BBX 6 11 1 -2
BITMAP
38
6C
C0
C0
C0
C0
C0
64
38
10
60
ENDCHAR
STARTCHAR Egrave
ENCODING 200
SWIDTH 42 0
DWIDTH 7 0
BBX 5 11 2 0
BITMAP
60
30
00
F8
C0
C0
F0
C0
C0
C0
F8
ENDCHAR
STARTCHAR Eacute
ENCODING 201
SWIDTH 42 0
DWIDTH 7 0
BBX 5 11 2 0
BITMAP
30
60
00
F8
C0
C0
F0
C0
C0
C0
F8
ENDCHAR
STARTCHAR Ecircumflex
ENCODING 202
SWIDTH 42 0
DWIDTH 7 0
BBX 5 11 2 0
BITMAP
30
58
00
F8
C0
C0
F0
C0
C0
C0
F8
ENDCHAR
STARTCHAR Edieresis
ENCODING 203
SWIDTH 42 0
DWIDTH 7 0
BBX 5 11 2 0
BITMAP
48
48
00
F8
C0
C0
F0
C0
C0
C0
F8
ENDCHAR
STARTCHAR Igrave
ENCODING 204
SWIDTH 42 0
DWIDTH 7 0
BBX 6 11 1 0
BITMAP
60
30
00
FC
30
30
30
30
30
30
FC
ENDCHAR
STARTCHAR Iacute
ENCODING 205
SWIDTH 42 0
DWIDTH 7 0
BBX 6 11 1 0
BITMAP
18
30
00
FC
30
30
30
30
30
30
FC
ENDCHAR
STARTCHAR Icircumflex
ENCODING 206
SWIDTH 42 0
DWIDTH 7 0
BBX 6 11 1 0
BITMAP
30
58
00
FC
30
30
30
30
30
30
FC
ENDCHAR
STARTCHAR Idieresis
ENCODING 207
SWIDTH 42 0
DWIDTH 7 0
BBX 6 11 1 0
BITMAP
48
48
00
FC
30
30
30
30
30
30
FC
ENDCHAR
STARTCHAR Eth
ENCODING 208
SWIDTH 42 0
DWIDTH 7 0
BBX 7 9 0 0
BITMAP
78
6C
66
66
F6
66
66
6C
78
ENDCHAR
STARTCHAR Ntilde
ENCODING 209
SWIDTH 42 0
DWIDTH 7 0
BBX 6 11 1 0
BITMAP
34
58
00
C4
E4
E4
B4
BC
9C
8C
8C
ENDCHAR
STARTCHAR Ograve
ENCODING 210
SWIDTH 42 0
DWIDTH 7 0
BBX 6 11 1 0
BITMAP
60
30
00
78
48
CC
CC
CC
CC
48
78
ENDCHAR
STARTCHAR Oacute
ENCODING 211
SWIDTH 42 0
DWIDTH 7 0
BBX 6 11 1 0
BITMAP
18
30
00
78
48
CC
CC
CC
CC
48
78
ENDCHAR
STARTCHAR Ocircumflex
ENCODING 212
SWIDTH 42 0
DWIDTH 7 0
BBX 6 11 1 0
BITMAP
30
58
00
78
48
CC
CC
CC
CC
48
78
ENDCHAR
STARTCHAR Otilde
ENCODING 213
SWIDTH 42 0
DWIDTH 7 0
BBX 6 11 1 0
BITMAP
68
B0
00
78
48
CC
CC
CC
CC
48
78
ENDCHAR
STARTCHAR Odieresis
ENCODING 214
SWIDTH 42 0
DWIDTH 7 0
BBX 6 11 1 0
BITMAP
48
48
00
78
48
CC
CC
CC
CC
48
78
ENDCHAR
STARTCHAR multiply
ENCODING 215
SWIDTH 42 0
DWIDTH 7 0
BBX 7 7 0 1
BITMAP
C2
64
38
18
2C
46
82
ENDCHAR
STARTCHAR Oslash
ENCODING 216
SWIDTH 42 0
DWIDTH 7 0
BBX 6 11 1 -1
BITMAP
04
7C
48
DC
DC
EC
EC
CC
48
F8
80
ENDCHAR
STARTCHAR Ugrave
ENCODING 217
SWIDTH 42 0
DWIDTH 7 0
BBX 6 11 1 0
BITMAP
60
30
00
C4
C4
C4
C4
C4
C4
68
30
ENDCHAR
STARTCHAR Uacute
ENCODING 218
SWIDTH 42 0
DWIDTH 7 0
BBX 6 11 1 0
BITMAP
18
30
00
C4
C4
C4
C4
C4
C4
68
30
ENDCHAR
STARTCHAR Ucircumflex
ENCODING 219
SWIDTH 42 0
DWIDTH 7 0
BBX 6 11 1 0
BITMAP
30
58
00
C4
C4
C4
C4
C4
C4
68
30
ENDCHAR
STARTCHAR Udieresis
ENCODING 220
SWIDTH 42 0
DWIDTH 7 0
BBX 6 11 1 0
BITMAP
48
48
00
C4
C4
C4
C4
C4
C4
68
30
ENDCHAR
STARTCHAR Yacute
ENCODING 221
SWIDTH 42 0
DWIDTH 7 0
BBX 6 11 1 0
BITMAP
18
30
00
CC
CC
48
78
30
30
30
30
ENDCHAR
STARTCHAR Thorn
ENCODING 222
SWIDTH 42 0
DWIDTH 7 0
BBX 6 9 1 0
BITMAP
C0
C0
F8
CC
CC
CC
F8
C0
C0
ENDCHAR
STARTCHAR germandbls
ENCODING 223
SWIDTH 42 0
DWIDTH 7 0
BBX 6 10 1 0
BITMAP
70
D8
C8
C8
D0
C8
CC
CC
CC
D8
ENDCHAR
STARTCHAR agrave
ENCODING 224
SWIDTH 42 0
DWIDTH 7 0
BBX 6 10 1 0
BITMAP
60
30
00
78
CC
0C
7C
CC
CC
74
ENDCHAR
STARTCHAR aacute
ENCODING 225
SWIDTH 42 0
DWIDTH 7 0
BBX 6 10 1 0
BITMAP
18
30
00
78
CC
0C
7C
CC
CC
74
ENDCHAR
STARTCHAR acircumflex
ENCODING 226
SWIDTH 42 0
DWIDTH 7 0
BBX 6 10 1 0
BITMAP
30
58
00
78
CC
0C
7C
CC
CC
74
ENDCHAR
STARTCHAR atilde
ENCODING 227
SWIDTH 42 0
DWIDTH 7 0
BBX 6 10 1 0
BITMAP
68
B0
00
78
CC
0C
7C
CC
CC
74
ENDCHAR
STARTCHAR adieresis
ENCODING 228
SWIDTH 42 0
DWIDTH 7 0
BBX 6 10 1 0
BITMAP
48
48
00
78
CC
0C
7C
CC
CC
74
ENDCHAR
STARTCHAR aring
ENCODING 229
SWIDTH 42 0
DWIDTH 7 0
BBX 6 11 1 0
BITMAP
30
58
30
00
78
CC
0C
7C
CC
CC
74
ENDCHAR
STARTCHAR ae
ENCODING 230
SWIDTH 42 0
DWIDTH 7 0
BBX 7 7 0 0
BITMAP
6E
9A
1A
7E
D8
D8
6E
ENDCHAR
STARTCHAR ccedilla
ENCODING 231
SWIDTH 42 0
DWIDTH 7 0
BBX 6 9 1 -2
BITMAP
78
CC
C0
C0
C0
C4
78
20
C0
ENDCHAR
STARTCHAR egrave
ENCODING 232
SWIDTH 42 0
DWIDTH 7 0
BBX 6 10 1 0
BITMAP
30
18
00
78
CC
CC
FC
C0
C4
78
ENDCHAR
STARTCHAR eacute
ENCODING 233
SWIDTH 42 0
DWIDTH 7 0
BBX 6 10 1 0
BITMAP
18
30
00
78
CC
CC
FC
C0
C4
78
ENDCHAR
STARTCHAR ecircumflex
ENCODING 234
SWIDTH 42 0
DWIDTH 7 0
BBX 6 10 1 0
BITMAP
30
58
00
78
CC
CC
FC
C0
C4
78
ENDCHAR
STARTCHAR edieresis
ENCODING 235
SWIDTH 42 0
DWIDTH 7 0
BBX 6 10 1 0
BITMAP
48
48
00
78
CC
CC
FC
C0
C4
78
ENDCHAR
STARTCHAR igrave
ENCODING 236
SWIDTH 42 0
DWIDTH 7 0
BBX 4 10 1 0
BITMAP
60
30
00
F0
30
30
30
30
30
30
ENDCHAR
STARTCHAR iacute
ENCODING 237
SWIDTH 42 0
DWIDTH 7 0
BBX 5 10 1 0
BITMAP
18
30
00
F0
30
30
30
30
30
30
ENDCHAR
STARTCHAR icircumflex
ENCODING 238
SWIDTH 42 0
DWIDTH 7 0
BBX 5 10 1 0
BITMAP
30
58
00
F0
30
30
30
30
30
30
ENDCHAR
STARTCHAR idieresis
ENCODING 239
SWIDTH 42 0
DWIDTH 7 0
BBX 5 10 1 0
BITMAP
48
48
00
F0
30
30
30
30
30
30
ENDCHAR
STARTCHAR eth
ENCODING 240
SWIDTH 42 0
DWIDTH 7 0
BBX 6 10 1 0
BITMAP
30
1C
38
0C
7C
CC
CC
CC
CC
78
ENDCHAR
STARTCHAR ntilde
ENCODING 241
SWIDTH 42 0
DWIDTH 7 0
BBX 6 10 1 0
BITMAP
68
B0
00
D8
EC
CC
CC
CC
CC
CC
ENDCHAR
STARTCHAR ograve
ENCODING 242
SWIDTH 42 0
DWIDTH 7 0
BBX 6 10 1 0
BITMAP
60
30
00
78
CC
CC
CC
CC
CC
78
ENDCHAR
STARTCHAR oacute
ENCODING 243
SWIDTH 42 0
DWIDTH 7 0
BBX 6 10 1 0
BITMAP
18
30
00
78
CC
CC
CC
CC
CC
78
ENDCHAR
STARTCHAR ocircumflex
ENCODING 244
SWIDTH 42 0
DWIDTH 7 0
BBX 6 10 1 0
BITMAP
30
58
00
78
CC
CC
CC
CC
CC
78
ENDCHAR
STARTCHAR otilde
ENCODING 245
SWIDTH 42 0
DWIDTH 7 0
BBX 6 10 1 0
BITMAP
68
B0
00
78
CC
CC
CC
CC
CC
78
ENDCHAR
STARTCHAR odieresis
ENCODING 246
SWIDTH 42 0
DWIDTH 7 0
BBX 6 10 1 0
BITMAP
48
48
00
78
CC
CC
CC
CC
CC
78
ENDCHAR
STARTCHAR divide
ENCODING 247
SWIDTH 42 0
DWIDTH 7 0
BBX 7 7 0 1
BITMAP
10
10
00
FE
00
10
10
ENDCHAR
STARTCHAR oslash
ENCODING 248
SWIDTH 42 0
DWIDTH 7 0
BBX 6 9 1 -1
BITMAP
04
7C
CC
DC
EC
CC
CC
F8
80
ENDCHAR
STARTCHAR ugrave
ENCODING 249
SWIDTH 42 0
DWIDTH 7 0
BBX 6 10 1 0
BITMAP
60
30
00
CC
CC
CC
CC
CC
DC
6C
ENDCHAR
STARTCHAR uacute
ENCODING 250
SWIDTH 42 0
DWIDTH 7 0
BBX 6 10 1 0
BITMAP
18
30
00
CC
CC
CC
CC
CC
DC
6C
ENDCHAR
STARTCHAR ucircumflex
ENCODING 251
SWIDTH 42 0
DWIDTH 7 0
BBX 6 10 1 0
BITMAP
30
58
00
CC
CC
CC
CC
CC
DC
6C
ENDCHAR
STARTCHAR udieresis
ENCODING 252
SWIDTH 42 0
DWIDTH 7 0
BBX 6 10 1 0
BITMAP
48
48
00
CC
CC
CC
CC
CC
DC
6C
ENDCHAR
STARTCHAR yacute
ENCODING 253
SWIDTH 42 0
DWIDTH 7 0
BBX 6 12 1 -2
BITMAP
18
30
00
CC
CC
CC
68
68
30
30
20
60
ENDCHAR
STARTCHAR thorn
ENCODING 254
SWIDTH 42 0
DWIDTH 7 0
BBX 6 11 1 -2
BITMAP
C0
C0
D8
EC
CC
CC
CC
CC
F8
C0
C0
ENDCHAR
STARTCHAR ydieresis
ENCODING 255
SWIDTH 42 0
DWIDTH 7 0
BBX 6 12 1 -2
BITMAP
48
48
00
CC
CC
CC
68
68
30
30
20
60
ENDCHAR
STARTCHAR fl
ENCODING -1
SWIDTH 42 0
DWIDTH 7 0
BBX 7 10 0 0
BITMAP
3E
66
66
FE
66
66
66
66
66
66
ENDCHAR
STARTCHAR endash
ENCODING -1
SWIDTH 42 0
DWIDTH 7 0
BBX 4 1 2 4
BITMAP
F0
ENDCHAR
STARTCHAR dagger
ENCODING -1
SWIDTH 42 0
DWIDTH 7 0
BBX 6 10 1 -1
BITMAP
30
30
30
FC
30
30
30
30
30
30
ENDCHAR
STARTCHAR Zcaron
ENCODING -1
SWIDTH 42 0
DWIDTH 7 0
BBX 6 11 1 0
BITMAP
58
30
00
FC
0C
1C
38
70
E0
C0
FC
ENDCHAR
STARTCHAR oe
ENCODING -1
SWIDTH 42 0
DWIDTH 7 0
BBX 7 7 0 0
BITMAP
6C
9A
9A
9E
98
98
6E
ENDCHAR
STARTCHAR Ydieresis
ENCODING -1
SWIDTH 42 0
DWIDTH 7 0
BBX 6 11 1 0
BITMAP
48
48
00
CC
CC
48
78
30
30
30
30
ENDCHAR
STARTCHAR dotlessi
ENCODING -1
SWIDTH 42 0
DWIDTH 7 0
BBX 4 7 1 0
BITMAP
F0
30
30
30
30
30
30
ENDCHAR
STARTCHAR lslash
ENCODING -1
SWIDTH 42 0
DWIDTH 7 0
BBX 6 10 1 0
BITMAP
F0
30
30
3C
F0
30
30
30
30
30
ENDCHAR
STARTCHAR Lslash
ENCODING -1
SWIDTH 42 0
DWIDTH 7 0
BBX 7 9 0 0
BITMAP
30
30
30
3C
F0
30
30
30
3E
ENDCHAR
STARTCHAR daggerdbl
ENCODING -1
SWIDTH 42 0
DWIDTH 7 0
BBX 6 10 1 -1
BITMAP
30
30
30
FC
30
30
FC
30
30
30
ENDCHAR
STARTCHAR fi
ENCODING -1
SWIDTH 42 0
DWIDTH 7 0
BBX 7 10 0 0
BITMAP
3E
66
60
FE
66
66
66
66
66
66
ENDCHAR
STARTCHAR guilsinglright
ENCODING -1
SWIDTH 42 0
DWIDTH 7 0
BBX 4 5 2 1
BITMAP
C0
60
30
60
C0
ENDCHAR
STARTCHAR OE
ENCODING -1
SWIDTH 42 0
DWIDTH 7 0
BBX 7 9 0 0
BITMAP
7E
98
98
98
9E
98
98
98
7E
ENDCHAR
STARTCHAR emdash
ENCODING -1
SWIDTH 42 0
DWIDTH 7 0
BBX 7 1 0 4
BITMAP
FE
ENDCHAR
STARTCHAR caron
ENCODING -1
SWIDTH 42 0
DWIDTH 7 0
BBX 4 2 2 8
BITMAP
B0
60
ENDCHAR
STARTCHAR ogonek
ENCODING -1
SWIDTH 42 0
DWIDTH 7 0
BBX 3 2 3 -2
BITMAP
80
60
ENDCHAR
STARTCHAR hungarumlaut
ENCODING -1
SWIDTH 42 0
DWIDTH 7 0
BBX 5 2 2 8
BITMAP
D8
90
ENDCHAR
STARTCHAR guilsinglleft
ENCODING -1
SWIDTH 42 0
DWIDTH 7 0
BBX 4 5 1 1
BITMAP
30
60
C0
60
30
ENDCHAR
STARTCHAR dotaccent
ENCODING -1
SWIDTH 42 0
DWIDTH 7 0
BBX 2 2 3 8
BITMAP
C0
C0
ENDCHAR
STARTCHAR breve
ENCODING -1
SWIDTH 42 0
DWIDTH 7 0
BBX 4 2 2 8
BITMAP
90
60
ENDCHAR
STARTCHAR bullet
ENCODING -1
SWIDTH 42 0
DWIDTH 7 0
BBX 3 3 2 3
BITMAP
E0
E0
E0
ENDCHAR
STARTCHAR tilde
ENCODING -1
SWIDTH 42 0
DWIDTH 7 0
BBX 5 2 2 8
BITMAP
68
B0
ENDCHAR
STARTCHAR circumflex
ENCODING -1
SWIDTH 42 0
DWIDTH 7 0
BBX 4 2 2 8
BITMAP
60
B0
ENDCHAR
STARTCHAR quotedblleft
ENCODING -1
SWIDTH 42 0
DWIDTH 7 0
BBX 5 4 1 6
BITMAP
48
90
D8
D8
ENDCHAR
STARTCHAR quotesingle
ENCODING -1
SWIDTH 42 0
DWIDTH 7 0
BBX 2 4 2 6
BITMAP
C0
C0
80
80
ENDCHAR
STARTCHAR scaron
ENCODING -1
SWIDTH 42 0
DWIDTH 7 0
BBX 6 10 1 0
BITMAP
58
30
00
7C
C0
E0
78
1C
0C
F8
ENDCHAR
STARTCHAR ring
ENCODING -1
SWIDTH 42 0
DWIDTH 7 0
BBX 4 3 2 8
BITMAP
60
B0
60
ENDCHAR
STARTCHAR quotesinglbase
ENCODING -1
SWIDTH 42 0
DWIDTH 7 0
BBX 2 4 3 -2
BITMAP
C0
C0
40
80
ENDCHAR
STARTCHAR florin
ENCODING -1
SWIDTH 42 0
DWIDTH 7 0
BBX 7 10 0 -1
BITMAP
1C
32
30
30
FC
60
60
C0
C0
C0
ENDCHAR
STARTCHAR trademark
ENCODING -1
SWIDTH 42 0
DWIDTH 7 0
BBX 7 3 0 6
BITMAP
FE
5E
52
ENDCHAR
STARTCHAR fraction
ENCODING -1
SWIDTH 42 0
DWIDTH 7 0
BBX 7 9 0 0
BITMAP
06
06
0C
18
18
30
60
C0
C0
ENDCHAR
STARTCHAR grave
ENCODING -1
SWIDTH 42 0
DWIDTH 7 0
BBX 3 2 2 8
BITMAP
C0
60
ENDCHAR
STARTCHAR perthousand
ENCODING -1
SWIDTH 42 0
DWIDTH 7 0
BBX 7 9 0 0
BITMAP
60
B0
64
18
60
80
6C
B6
6C
ENDCHAR
STARTCHAR ellipsis
ENCODING -1
SWIDTH 42 0
DWIDTH 7 0
BBX 4 2 1 0
BITMAP
90
90
ENDCHAR
STARTCHAR quotedblright
ENCODING -1
SWIDTH 42 0
DWIDTH 7 0
BBX 5 4 1 6
BITMAP
D8
D8
48
90
ENDCHAR
STARTCHAR Scaron
ENCODING -1
SWIDTH 42 0
DWIDTH 7 0
BBX 6 11 1 0
BITMAP
58
30
00
78
CC
C0
F8
7C
0C
CC
78
ENDCHAR
STARTCHAR quotedblbase
ENCODING -1
SWIDTH 42 0
DWIDTH 7 0
BBX 5 4 1 -2
BITMAP
D8
D8
48
90
ENDCHAR
STARTCHAR zcaron
ENCODING -1
SWIDTH 42 0
DWIDTH 7 0
BBX 6 10 1 0
BITMAP
58
30
00
FC
1C
38
70
E0
C0
FC
ENDCHAR
ENDFONT
